<svg xmlns="http://www.w3.org/2000/svg" width="27.302" height="19.839" viewBox="0 0 7.224 5.249"><path d="m3.754.425.831.099L5.825.51l.353.098.197.268.084.38.24.325.056.338-.394.183.267.394.07.395.452.76-.043.24-.324.1-.535.732.225.394-.155-.056-.704-.338-.493.127-.338-.085-.395.183-.38-.31-.268.127-.042-.056-.367-.437-.521-.042-.099-.282-.479-.099-.084.226-.395-.184.028-.24-.521-.07L.908 3.3l-.339-.55.029-.31-.212-.465L.12 1.68l.169-.24-.198-.436.437-.254 1-.394.818-.282.676.14.085.212z" style="fill:#dae8fc;fill-opacity:1;stroke:#6c8ebf;stroke-width:.140905;stroke-opacity:1"/></svg>